<svg width="44" height="44" viewBox="0 0 44 44" fill="none" xmlns="http://www.w3.org/2000/svg">
<rect x="0.5" y="0.5" width="43" height="43" rx="6.5" fill="#6363DB"/>
<rect x="0.5" y="0.5" width="43" height="43" rx="6.5" stroke="#4F4FB9"/>
<path d="M21.72 21.48H27.38V28.88C26.6333 29.1333 25.8533 29.3333 25.04 29.48C24.24 29.6267 23.3267 29.7 22.3 29.7C20.8867 29.7 19.68 29.42 18.68 28.86C17.6933 28.3 16.94 27.4733 16.42 26.38C15.9133 25.2867 15.66 23.94 15.66 22.34C15.66 20.8467 15.9467 19.5533 16.52 18.46C17.1067 17.3667 17.9533 16.52 19.06 15.92C20.1667 15.32 21.52 15.02 23.12 15.02C23.88 15.02 24.6267 15.1 25.36 15.26C26.0933 15.42 26.76 15.6333 27.36 15.9L26.36 18.32C25.92 18.0933 25.42 17.9067 24.86 17.76C24.3 17.6133 23.7133 17.54 23.1 17.54C22.22 17.54 21.4533 17.74 20.8 18.14C20.16 18.54 19.66 19.1067 19.3 19.84C18.9533 20.56 18.78 21.4133 18.78 22.4C18.78 23.3333 18.9067 24.16 19.16 24.88C19.4133 25.6 19.8133 26.1667 20.36 26.58C20.9067 26.98 21.62 27.18 22.5 27.18C22.7933 27.18 23.0467 27.1733 23.26 27.16C23.4867 27.1333 23.6933 27.1067 23.88 27.08C24.0667 27.04 24.2467 27.0067 24.42 26.98V24H21.72V21.48Z" fill="white"/>
</svg>
